<svg viewBox="0 0 823 128" fill="none" xmlns="http://www.w3.org/2000/svg" aria-label="Dewiz" role="img"><path class="logo-hat-m_svg__fill-primary" d="M234.721 109.611v-80.7h57.644v11.528h11.528v11.529h11.529v34.585h-11.529v11.53h-11.528v11.528h-57.644Zm23.058-11.529h23.057V86.554h11.529V51.966h-11.529V40.44h-23.057v57.643ZM372.585 109.611V98.082h-11.529V63.497h11.529v-11.53h57.643v11.53h11.529v23.057h-57.643v11.528h46.114v11.529h-57.643Zm11.529-34.586H418.7V63.496h-34.586v11.53ZM511.41 98.082h11.528v11.529h-23.057V98.082h-11.529V51.968h23.058v46.114Zm23.057-46.114v46.114h-11.529V51.968h11.529Zm34.586 0v46.114h-11.529v11.529h-23.057V98.082h11.529V51.968h23.057ZM650.234 40.439V28.91h23.057V40.44h-23.057Zm-23.057 69.172V98.082h23.057V63.496h-11.529V51.967h34.586v46.115h23.058v11.529h-69.172ZM741.983 109.611V98.082h11.529V86.554h11.528V75.025h11.529V63.496h-34.586V51.968h80.701v11.528h-11.529v11.53h-11.529v11.528h-11.528v11.528h34.586v11.529h-80.701Z" fill="#00B2E2"></path><path class="logo-hat-m_svg__fill-primary" fill-rule="evenodd" clip-rule="evenodd" d="M34.855 11.94V.41h46.114V11.94h11.529v11.528h11.529v11.53h11.528v34.585h11.529v23.058h11.529v11.528h23.057v11.529h11.529v11.529H.269v-11.529h11.528v-11.529h23.058V92.641h11.528V69.583h11.529V46.526H69.44V23.468H57.91V11.94H34.856Zm81.196 109.199H46.879v5.765h69.172v-5.765Z" fill="#00B2E2"></path><path class="logo-hat-m_svg__fill-secondary" d="M104.016 81.219h23.058v23.022h-23.058V81.219ZM92.49 80.79H41.86v11.528h50.63V80.789Z" fill="#00414C"></path><path class="logo-hat-m_svg__fill-secondary" d="M92.49 92.318H29.587v11.858l62.905.058V92.318Z" fill="#00414C"></path><path fill-rule="evenodd" clip-rule="evenodd" d="M92.49 69.652v46.115h34.587v-11.529h11.528V81.181h-11.528V69.652H92.491Zm11.529 11.529h23.058v23.057h-23.058V81.181Z" fill="#FFC121"></path></svg>
