<?xml version="1.0" encoding="UTF-8"?><svg id="Livello_2" xmlns="http://www.w3.org/2000/svg" viewBox="0 0 296.35 150.55"><defs><style>.cls-1{fill:#01e0bc;}.cls-2{fill:#fff;}</style></defs><g id="Livello_1-2"><g id="logo-explus-registered"><g><g><polygon class="cls-2" points="88.76 146.23 88.76 150.19 72.27 150.19 72.27 128.88 88.37 128.88 88.37 132.84 77.17 132.84 77.17 137.46 87.06 137.46 87.06 141.3 77.17 141.3 77.17 146.23 88.76 146.23"/><polygon class="cls-2" points="111.98 150.19 106.84 142.79 101.79 150.19 96.12 150.19 104.01 139.35 96.52 128.88 102.12 128.88 107.03 135.79 111.83 128.88 117.16 128.88 109.73 139.17 117.68 150.19 111.98 150.19"/><polygon class="cls-2" points="153.78 128.88 158.71 128.88 158.71 146.17 169.4 146.17 169.4 150.18 153.78 150.18 153.78 128.88"/><path class="cls-2" d="M180.33,148.02c-1.69-1.68-2.54-4.09-2.54-7.21v-11.93h4.93v11.75c0,3.81,1.58,5.72,4.75,5.72,1.54,0,2.72-.46,3.53-1.39,.81-.92,1.22-2.37,1.22-4.34v-11.75h4.87v11.93c0,3.12-.85,5.53-2.54,7.21-1.69,1.68-4.06,2.53-7.1,2.53s-5.41-.84-7.11-2.53"/><path class="cls-2" d="M210.16,149.86c-1.58-.46-2.84-1.04-3.79-1.78l1.67-3.72c.91,.67,2,1.21,3.25,1.61,1.26,.41,2.52,.61,3.78,.61,1.4,0,2.44-.21,3.11-.63,.67-.42,1.01-.96,1.01-1.66,0-.51-.2-.93-.6-1.26-.4-.33-.9-.61-1.52-.81-.62-.2-1.46-.42-2.51-.67-1.62-.39-2.95-.77-3.99-1.16-1.04-.38-1.92-1-2.67-1.86-.74-.85-1.11-1.98-1.11-3.41,0-1.24,.33-2.36,1.01-3.36,.66-1,1.68-1.8,3.03-2.39,1.34-.59,3-.89,4.95-.89,1.36,0,2.69,.16,3.98,.49,1.3,.32,2.44,.79,3.41,1.4l-1.52,3.75c-1.97-1.12-3.93-1.67-5.91-1.67-1.38,0-2.4,.22-3.06,.67-.66,.45-.99,1.03-.99,1.77s.38,1.27,1.14,1.62c.76,.36,1.92,.71,3.48,1.05,1.63,.39,2.95,.77,3.99,1.16,1.04,.39,1.92,1,2.67,1.82,.74,.83,1.11,1.96,1.11,3.38,0,1.22-.34,2.33-1.02,3.34-.68,1-1.7,1.8-3.06,2.39-1.36,.59-3.02,.88-4.96,.88-1.68,0-3.31-.23-4.88-.69"/><path class="cls-2" d="M138.04,139.33c.77-.64,1.16-1.55,1.16-2.72s-.39-2.12-1.16-2.76c-.77-.64-1.9-.96-3.38-.96h-4.02v7.4h4.02c1.48,0,2.61-.32,3.38-.96m1.81-9.51c1.39,.63,2.46,1.52,3.21,2.67,.75,1.16,1.12,2.53,1.12,4.11s-.37,2.93-1.12,4.09c-.75,1.17-1.82,2.06-3.21,2.68-1.39,.62-3.03,.93-4.91,.93h-4.3v5.87h-4.93v-21.31h9.22c1.89,0,3.52,.32,4.91,.95"/></g><path class="cls-2" d="M118.03,6.73l19.46,19.46c4.43,4.43,11.61,4.43,16.04,0l19.47-19.47c4.43-4.43,11.61-4.43,16.04,0h0c4.43,4.43,4.43,11.61,0,16.04l-19.47,19.47c-4.43,4.43-4.43,11.61,0,16.04l19.75,19.75c4.43,4.43,4.43,11.61,0,16.04h0c-4.43,4.43-11.61,4.43-16.04,0l-19.75-19.75c-4.43-4.43-11.61-4.43-16.04,0l-19.65,19.65c-4.43,4.43-11.61,4.43-16.04,0h0c-4.43-4.43-4.43-11.61,0-16.04l19.65-19.65c4.43-4.43,4.43-11.61,0-16.04l-19.46-19.46c-4.43-4.43-4.43-11.61,0-16.04h0c4.43-4.43,11.61-4.43,16.04,0Z"/><path class="cls-1" d="M257.43,10.94v23.07c0,2.71,2.19,4.9,4.9,4.9h23.08c6.04,0,10.94,4.9,10.94,10.94h0c0,6.04-4.9,10.94-10.94,10.94h-23.08c-2.71,0-4.9,2.19-4.9,4.9v23.46c0,6.04-4.9,10.94-10.94,10.94h0c-6.04,0-10.94-4.9-10.94-10.94v-23.46c0-2.71-2.19-4.9-4.9-4.9h-23.32c-6.04,0-10.94-4.9-10.94-10.94h0c0-6.04,4.9-10.94,10.94-10.94h23.32c2.71,0,4.9-2.19,4.9-4.9V10.94C235.55,4.9,240.45,0,246.49,0h0c6.04,0,10.94,4.9,10.94,10.94Z"/><path class="cls-2" d="M64.21,61.06h-31.85c-6.08,0-11.01-4.93-11.01-11.01h0c0-6.08,4.93-11.01,11.01-11.01h46.44c6.08,0,11.01,4.93,11.01,11.01h0c0,6.08-4.93,11.01-11.01,11.01h-13.64"/><path class="cls-2" d="M51.56,97.39H9.97c-5.5,0-9.97-4.46-9.97-9.97H0c0-5.5,4.46-9.97,9.97-9.97h62.41c5.5,0,9.97,4.46,9.97,9.97h0c0,5.5-4.46,9.97-9.97,9.97h-19.68"/><path class="cls-2" d="M51.56,23.34H9.97C4.46,23.34,0,18.87,0,13.37H0C0,7.86,4.46,3.4,9.97,3.4h62.41c5.5,0,9.97,4.46,9.97,9.97h0c0,5.5-4.46,9.97-9.97,9.97h-19.68"/><g id="_2SLyjI.tif"><g><path class="cls-1" d="M277.1,.11c3.28-.02,6.11,2.66,6.11,6.13,0,3.46-2.83,6.14-6.17,6.12-3.37-.02-6.12-2.82-6.07-6.23,.05-3.3,2.78-6.05,6.13-6.02Zm4.73,6.12c0-2.6-2.13-4.75-4.69-4.75-2.64,0-4.79,2.13-4.79,4.76,0,2.58,2.15,4.74,4.73,4.74,2.61,0,4.76-2.14,4.76-4.75Z"/><path class="cls-1" d="M279.93,9.53c-.43,0-.89,0-1.35,0-.04,0-.12-.08-.13-.13-.08-.51-.14-1.03-.22-1.54-.03-.18-.05-.37-.1-.55-.09-.29-.27-.41-.57-.41-.42,0-.85,0-1.27,0-.14,0-.19,.04-.19,.18,0,.74,0,1.49,0,2.23,0,.07,0,.13,0,.21h-1.4V2.97s.06-.03,.1-.03c1.03,0,2.06,0,3.08,.02,.43,0,.85,.11,1.22,.35,.53,.34,.71,.85,.67,1.45-.03,.61-.33,1.06-.89,1.32-.13,.06-.28,.11-.45,.17,.07,.02,.1,.03,.14,.03,.46,.06,.78,.32,.89,.76,.1,.37,.13,.76,.19,1.14,.08,.44,.17,.87,.25,1.33Zm-3.81-4.62c0,.24,0,.48,0,.72,0,.12,.03,.16,.15,.16,.37,0,.75,0,1.12-.01,.58-.02,.87-.29,.91-.87,.02-.41-.11-.78-.59-.84-.5-.06-1.01-.04-1.52-.04-.02,0-.07,.08-.07,.13,0,.25,0,.5,0,.74Z"/></g></g></g></g></g></svg>