<svg width="64" height="64" viewBox="0 0 64 64" fill="none" xmlns="http://www.w3.org/2000/svg">
  <rect width="64" height="64" rx="8" fill="#000000"/>
  <rect x="30" y="8" width="4" height="48" fill="#F4F4F4"/>
  <rect x="8" y="30" width="48" height="4" fill="#F4F4F4"/>
  <rect x="27" y="27" width="10" height="10" fill="#F4F4F4"/>
  <rect x="20" y="22" width="4" height="4" fill="#F4F4F4"/>
  <rect x="16" y="18" width="4" height="4" fill="#F4F4F4"/>
  <rect x="12" y="14" width="4" height="4" fill="#F4F4F4"/>
  <rect x="40" y="22" width="4" height="4" fill="#F4F4F4"/>
  <rect x="44" y="18" width="4" height="4" fill="#F4F4F4"/>
  <rect x="48" y="14" width="4" height="4" fill="#F4F4F4"/>
  <rect x="20" y="38" width="4" height="4" fill="#F4F4F4"/>
  <rect x="16" y="42" width="4" height="4" fill="#F4F4F4"/>
  <rect x="12" y="46" width="4" height="4" fill="#F4F4F4"/>
  <rect x="40" y="38" width="4" height="4" fill="#F4F4F4"/>
  <rect x="44" y="42" width="4" height="4" fill="#F4F4F4"/>
  <rect x="48" y="46" width="4" height="4" fill="#F4F4F4"/>
  <rect x="48" y="6" width="6" height="6" fill="#16FF00"/>
  <rect x="54" y="6" width="6" height="6" fill="#16FF00"/>
  <rect x="54" y="12" width="6" height="6" fill="#16FF00"/>
  <rect x="48" y="18" width="6" height="6" fill="#16FF00"/>
  <rect x="54" y="24" width="6" height="6" fill="#16FF00"/>
  <rect x="48" y="24" width="6" height="6" fill="#16FF00"/>
</svg>
