<svg width="1536" height="1024" viewBox="0 0 1536 1024" fill="none" xmlns="http://www.w3.org/2000/svg">
<g clip-path="url(#clip0_101_140)">
<path d="M0 0H1536V1024H0V0Z" fill="black"/>
<path d="M723 432H759V501H723V432Z" fill="black"/>
<path d="M910 433H946V471H910V433Z" fill="black"/>
<path d="M629 432H663V462H629V432Z" fill="black"/>
<path d="M1008 433H1044V462H1010L1009 461L1008 433Z" fill="black"/>
<path d="M856 575H892V597H857L856 595V575Z" fill="black"/>
<g filter="url(#filter0_d_101_140)">
<mask id="path-7-outside-1_101_140" maskUnits="userSpaceOnUse" x="617" y="371" width="683" height="236" fill="black">
<rect fill="white" x="617" y="371" width="683" height="236"/>
<path d="M638.625 476H618V372.875H679.875V393.5H638.625V414.125H679.875V434.75H638.625V476ZM679.875 414.125V393.5H700.5V414.125H679.875ZM741.75 393.5V372.875H783V393.5H741.75ZM741.75 455.375H721.125V393.5H741.75V455.375ZM803.625 455.375H783V393.5H803.625V455.375ZM783 455.375V476H741.75V455.375H783ZM886.125 455.375V476H824.25V372.875H844.875V455.375H886.125ZM927.375 393.5V372.875H968.625V393.5H927.375ZM927.375 476H906.75V393.5H927.375V414.125H968.625V393.5H989.25V476H968.625V434.75H927.375V476ZM1030.5 476H1009.88V372.875H1071.75V393.5H1030.5V414.125H1071.75V434.75H1030.5V476ZM1092.38 414.125H1071.75V393.5H1092.38V414.125ZM1092.38 476H1071.75V434.75H1092.38V476ZM1195.5 455.375V476H1113V372.875H1195.5V393.5H1133.62V414.125H1174.88V434.75H1133.62V455.375H1195.5ZM1236.75 393.5V372.875H1298.62V393.5H1236.75ZM1216.12 414.125V393.5H1236.75V414.125H1216.12ZM1236.75 414.125H1278V434.75H1236.75V414.125ZM1298.62 455.375H1278V434.75H1298.62V455.375ZM1278 455.375V476H1216.12V455.375H1278Z"/>
<path d="M638.625 564.75H618V502.875H638.625V564.75ZM659.25 564.75V502.875H679.875V564.75H659.25ZM700.5 564.75V502.875H721.125V564.75H700.5ZM659.25 606H638.625V564.75H659.25V606ZM700.5 606H679.875V564.75H700.5V606ZM824.25 585.375V606H741.75V502.875H824.25V523.5H762.375V544.125H803.625V564.75H762.375V585.375H824.25ZM865.5 585.375H906.75V606H844.875V502.875H906.75V523.5H865.5V544.125H906.75V564.75H865.5V585.375ZM927.375 544.125H906.75V523.5H927.375V544.125ZM927.375 585.375H906.75V564.75H927.375V585.375ZM948 523.5V502.875H989.25V523.5H948ZM1009.88 544.125H989.25V523.5H1009.88V544.125ZM989.25 544.125V564.75H968.625V544.125H989.25ZM1009.88 585.375H989.25V564.75H1009.88V585.375ZM989.25 585.375V606H948V585.375H989.25Z"/>
</mask>
<path d="M638.625 476H618V372.875H679.875V393.5H638.625V414.125H679.875V434.75H638.625V476ZM679.875 414.125V393.5H700.5V414.125H679.875ZM741.75 393.5V372.875H783V393.5H741.75ZM741.75 455.375H721.125V393.5H741.75V455.375ZM803.625 455.375H783V393.5H803.625V455.375ZM783 455.375V476H741.75V455.375H783ZM886.125 455.375V476H824.25V372.875H844.875V455.375H886.125ZM927.375 393.5V372.875H968.625V393.5H927.375ZM927.375 476H906.75V393.5H927.375V414.125H968.625V393.5H989.25V476H968.625V434.75H927.375V476ZM1030.5 476H1009.88V372.875H1071.75V393.5H1030.5V414.125H1071.75V434.75H1030.5V476ZM1092.38 414.125H1071.75V393.5H1092.38V414.125ZM1092.38 476H1071.75V434.75H1092.38V476ZM1195.5 455.375V476H1113V372.875H1195.5V393.5H1133.62V414.125H1174.88V434.75H1133.62V455.375H1195.5ZM1236.75 393.5V372.875H1298.62V393.5H1236.75ZM1216.12 414.125V393.5H1236.75V414.125H1216.12ZM1236.75 414.125H1278V434.75H1236.75V414.125ZM1298.62 455.375H1278V434.75H1298.62V455.375ZM1278 455.375V476H1216.12V455.375H1278Z" fill="#F6FFF6"/>
<path d="M638.625 564.75H618V502.875H638.625V564.75ZM659.25 564.75V502.875H679.875V564.75H659.25ZM700.5 564.75V502.875H721.125V564.75H700.5ZM659.25 606H638.625V564.75H659.25V606ZM700.5 606H679.875V564.75H700.5V606ZM824.25 585.375V606H741.75V502.875H824.25V523.5H762.375V544.125H803.625V564.75H762.375V585.375H824.25ZM865.5 585.375H906.75V606H844.875V502.875H906.75V523.5H865.5V544.125H906.75V564.75H865.5V585.375ZM927.375 544.125H906.75V523.5H927.375V544.125ZM927.375 585.375H906.75V564.75H927.375V585.375ZM948 523.5V502.875H989.25V523.5H948ZM1009.88 544.125H989.25V523.5H1009.88V544.125ZM989.25 544.125V564.75H968.625V544.125H989.25ZM1009.88 585.375H989.25V564.75H1009.88V585.375ZM989.25 585.375V606H948V585.375H989.25Z" fill="#16FF00"/>
<path d="M638.625 476V477H639.625V476H638.625ZM618 476H617V477H618V476ZM618 372.875V371.875H617V372.875H618ZM679.875 372.875H680.875V371.875H679.875V372.875ZM679.875 393.5V394.5H680.875V393.5H679.875ZM638.625 393.5V392.5H637.625V393.5H638.625ZM638.625 414.125H637.625V415.125H638.625V414.125ZM679.875 414.125H680.875V413.125H679.875V414.125ZM679.875 434.75V435.75H680.875V434.75H679.875ZM638.625 434.75V433.75H637.625V434.75H638.625ZM679.875 414.125H678.875V415.125H679.875V414.125ZM679.875 393.5V392.5H678.875V393.5H679.875ZM700.5 393.5H701.5V392.5H700.5V393.5ZM700.5 414.125V415.125H701.5V414.125H700.5ZM638.625 476V475H618V476V477H638.625V476ZM618 476H619V372.875H618H617V476H618ZM618 372.875V373.875H679.875V372.875V371.875H618V372.875ZM679.875 372.875H678.875V393.5H679.875H680.875V372.875H679.875ZM679.875 393.5V392.5H638.625V393.5V394.5H679.875V393.5ZM638.625 393.5H637.625V414.125H638.625H639.625V393.5H638.625ZM638.625 414.125V415.125H679.875V414.125V413.125H638.625V414.125ZM679.875 414.125H678.875V434.75H679.875H680.875V414.125H679.875ZM679.875 434.75V433.75H638.625V434.75V435.75H679.875V434.75ZM638.625 434.75H637.625V476H638.625H639.625V434.75H638.625ZM679.875 414.125H680.875V393.5H679.875H678.875V414.125H679.875ZM679.875 393.5V394.5H700.5V393.5V392.5H679.875V393.5ZM700.5 393.5H699.5V414.125H700.5H701.5V393.5H700.5ZM700.5 414.125V413.125H679.875V414.125V415.125H700.5V414.125ZM741.75 393.5H740.75V394.5H741.75V393.5ZM741.75 372.875V371.875H740.75V372.875H741.75ZM783 372.875H784V371.875H783V372.875ZM783 393.5V394.5H784V393.5H783ZM741.75 455.375V456.375H742.75V455.375H741.75ZM721.125 455.375H720.125V456.375H721.125V455.375ZM721.125 393.5V392.5H720.125V393.5H721.125ZM741.75 393.5H742.75V392.5H741.75V393.5ZM803.625 455.375V456.375H804.625V455.375H803.625ZM783 455.375H782V456.375H783V455.375ZM783 393.5V392.5H782V393.5H783ZM803.625 393.5H804.625V392.5H803.625V393.5ZM783 455.375H784V454.375H783V455.375ZM783 476V477H784V476H783ZM741.75 476H740.75V477H741.75V476ZM741.75 455.375V454.375H740.75V455.375H741.75ZM741.75 393.5H742.75V372.875H741.75H740.75V393.5H741.75ZM741.75 372.875V373.875H783V372.875V371.875H741.75V372.875ZM783 372.875H782V393.5H783H784V372.875H783ZM783 393.5V392.5H741.75V393.5V394.5H783V393.5ZM741.75 455.375V454.375H721.125V455.375V456.375H741.75V455.375ZM721.125 455.375H722.125V393.5H721.125H720.125V455.375H721.125ZM721.125 393.5V394.5H741.75V393.5V392.5H721.125V393.5ZM741.75 393.5H740.75V455.375H741.75H742.75V393.5H741.75ZM803.625 455.375V454.375H783V455.375V456.375H803.625V455.375ZM783 455.375H784V393.5H783H782V455.375H783ZM783 393.5V394.5H803.625V393.5V392.5H783V393.5ZM803.625 393.5H802.625V455.375H803.625H804.625V393.5H803.625ZM783 455.375H782V476H783H784V455.375H783ZM783 476V475H741.75V476V477H783V476ZM741.75 476H742.75V455.375H741.75H740.75V476H741.75ZM741.75 455.375V456.375H783V455.375V454.375H741.75V455.375ZM886.125 455.375H887.125V454.375H886.125V455.375ZM886.125 476V477H887.125V476H886.125ZM824.25 476H823.25V477H824.25V476ZM824.25 372.875V371.875H823.25V372.875H824.25ZM844.875 372.875H845.875V371.875H844.875V372.875ZM844.875 455.375H843.875V456.375H844.875V455.375ZM886.125 455.375H885.125V476H886.125H887.125V455.375H886.125ZM886.125 476V475H824.25V476V477H886.125V476ZM824.25 476H825.25V372.875H824.25H823.25V476H824.25ZM824.25 372.875V373.875H844.875V372.875V371.875H824.25V372.875ZM844.875 372.875H843.875V455.375H844.875H845.875V372.875H844.875ZM844.875 455.375V456.375H886.125V455.375V454.375H844.875V455.375ZM927.375 393.5H926.375V394.5H927.375V393.5ZM927.375 372.875V371.875H926.375V372.875H927.375ZM968.625 372.875H969.625V371.875H968.625V372.875ZM968.625 393.5V394.5H969.625V393.5H968.625ZM927.375 476V477H928.375V476H927.375ZM906.75 476H905.75V477H906.75V476ZM906.75 393.5V392.5H905.75V393.5H906.75ZM927.375 393.5H928.375V392.5H927.375V393.5ZM927.375 414.125H926.375V415.125H927.375V414.125ZM968.625 414.125V415.125H969.625V414.125H968.625ZM968.625 393.5V392.5H967.625V393.5H968.625ZM989.25 393.5H990.25V392.5H989.25V393.5ZM989.25 476V477H990.25V476H989.25ZM968.625 476H967.625V477H968.625V476ZM968.625 434.75H969.625V433.75H968.625V434.75ZM927.375 434.75V433.75H926.375V434.75H927.375ZM927.375 393.5H928.375V372.875H927.375H926.375V393.5H927.375ZM927.375 372.875V373.875H968.625V372.875V371.875H927.375V372.875ZM968.625 372.875H967.625V393.5H968.625H969.625V372.875H968.625ZM968.625 393.5V392.5H927.375V393.5V394.5H968.625V393.5ZM927.375 476V475H906.75V476V477H927.375V476ZM906.75 476H907.75V393.5H906.75H905.75V476H906.75ZM906.75 393.5V394.5H927.375V393.5V392.5H906.75V393.5ZM927.375 393.5H926.375V414.125H927.375H928.375V393.5H927.375ZM927.375 414.125V415.125H968.625V414.125V413.125H927.375V414.125ZM968.625 414.125H969.625V393.5H968.625H967.625V414.125H968.625ZM968.625 393.5V394.5H989.25V393.5V392.5H968.625V393.5ZM989.25 393.5H988.25V476H989.25H990.25V393.5H989.25ZM989.25 476V475H968.625V476V477H989.25V476ZM968.625 476H969.625V434.75H968.625H967.625V476H968.625ZM968.625 434.75V433.75H927.375V434.75V435.75H968.625V434.75ZM927.375 434.75H926.375V476H927.375H928.375V434.75H927.375ZM1030.5 476V477H1031.5V476H1030.5ZM1009.88 476H1008.88V477H1009.88V476ZM1009.88 372.875V371.875H1008.88V372.875H1009.88ZM1071.75 372.875H1072.75V371.875H1071.75V372.875ZM1071.75 393.5V394.5H1072.75V393.5H1071.75ZM1030.5 393.5V392.5H1029.5V393.5H1030.5ZM1030.5 414.125H1029.5V415.125H1030.5V414.125ZM1071.75 414.125H1072.75V413.125H1071.75V414.125ZM1071.75 434.75V435.75H1072.75V434.75H1071.75ZM1030.5 434.75V433.75H1029.5V434.75H1030.5ZM1092.38 414.125V415.125H1093.38V414.125H1092.38ZM1071.75 414.125H1070.75V415.125H1071.75V414.125ZM1071.75 393.5V392.5H1070.75V393.5H1071.75ZM1092.38 393.5H1093.38V392.5H1092.38V393.5ZM1092.38 476V477H1093.38V476H1092.38ZM1071.75 476H1070.75V477H1071.75V476ZM1071.75 434.75V433.75H1070.75V434.75H1071.75ZM1092.38 434.75H1093.38V433.75H1092.38V434.75ZM1030.5 476V475H1009.88V476V477H1030.5V476ZM1009.88 476H1010.88V372.875H1009.88H1008.88V476H1009.88ZM1009.88 372.875V373.875H1071.75V372.875V371.875H1009.88V372.875ZM1071.75 372.875H1070.75V393.5H1071.75H1072.75V372.875H1071.75ZM1071.75 393.5V392.5H1030.5V393.5V394.5H1071.75V393.5ZM1030.5 393.5H1029.5V414.125H1030.5H1031.5V393.5H1030.5ZM1030.5 414.125V415.125H1071.75V414.125V413.125H1030.5V414.125ZM1071.75 414.125H1070.75V434.75H1071.75H1072.75V414.125H1071.75ZM1071.75 434.75V433.75H1030.5V434.75V435.75H1071.75V434.75ZM1030.5 434.75H1029.5V476H1030.5H1031.5V434.75H1030.5ZM1092.38 414.125V413.125H1071.75V414.125V415.125H1092.38V414.125ZM1071.75 414.125H1072.75V393.5H1071.75H1070.75V414.125H1071.75ZM1071.75 393.5V394.5H1092.38V393.5V392.5H1071.75V393.5ZM1092.38 393.5H1091.38V414.125H1092.38H1093.38V393.5H1092.38ZM1092.38 476V475H1071.75V476V477H1092.38V476ZM1071.75 476H1072.75V434.75H1071.75H1070.75V476H1071.75ZM1071.75 434.75V435.75H1092.38V434.75V433.75H1071.75V434.75ZM1092.38 434.75H1091.38V476H1092.38H1093.38V434.75H1092.38ZM1195.5 455.375H1196.5V454.375H1195.5V455.375ZM1195.5 476V477H1196.5V476H1195.5ZM1113 476H1112V477H1113V476ZM1113 372.875V371.875H1112V372.875H1113ZM1195.5 372.875H1196.5V371.875H1195.5V372.875ZM1195.5 393.5V394.5H1196.5V393.5H1195.5ZM1133.62 393.5V392.5H1132.62V393.5H1133.62ZM1133.62 414.125H1132.62V415.125H1133.62V414.125ZM1174.88 414.125H1175.88V413.125H1174.88V414.125ZM1174.88 434.75V435.75H1175.88V434.75H1174.88ZM1133.62 434.75V433.75H1132.62V434.75H1133.62ZM1133.62 455.375H1132.62V456.375H1133.62V455.375ZM1195.5 455.375H1194.5V476H1195.5H1196.5V455.375H1195.5ZM1195.5 476V475H1113V476V477H1195.5V476ZM1113 476H1114V372.875H1113H1112V476H1113ZM1113 372.875V373.875H1195.5V372.875V371.875H1113V372.875ZM1195.5 372.875H1194.5V393.5H1195.5H1196.5V372.875H1195.5ZM1195.5 393.5V392.5H1133.62V393.5V394.5H1195.5V393.5ZM1133.62 393.5H1132.62V414.125H1133.62H1134.62V393.5H1133.62ZM1133.62 414.125V415.125H1174.88V414.125V413.125H1133.62V414.125ZM1174.88 414.125H1173.88V434.75H1174.88H1175.88V414.125H1174.88ZM1174.88 434.75V433.75H1133.62V434.75V435.75H1174.88V434.75ZM1133.62 434.75H1132.62V455.375H1133.62H1134.62V434.75H1133.62ZM1133.62 455.375V456.375H1195.5V455.375V454.375H1133.62V455.375ZM1236.75 393.5H1235.75V394.5H1236.75V393.5ZM1236.75 372.875V371.875H1235.75V372.875H1236.75ZM1298.62 372.875H1299.62V371.875H1298.62V372.875ZM1298.62 393.5V394.5H1299.62V393.5H1298.62ZM1216.12 414.125H1215.12V415.125H1216.12V414.125ZM1216.12 393.5V392.5H1215.12V393.5H1216.12ZM1236.75 393.5H1237.75V392.5H1236.75V393.5ZM1236.75 414.125V415.125H1237.75V414.125H1236.75ZM1236.75 414.125V413.125H1235.75V414.125H1236.75ZM1278 414.125H1279V413.125H1278V414.125ZM1278 434.75V435.75H1279V434.75H1278ZM1236.75 434.75H1235.75V435.75H1236.75V434.75ZM1298.62 455.375V456.375H1299.62V455.375H1298.62ZM1278 455.375H1277V456.375H1278V455.375ZM1278 434.75V433.75H1277V434.75H1278ZM1298.62 434.75H1299.62V433.75H1298.62V434.75ZM1278 455.375H1279V454.375H1278V455.375ZM1278 476V477H1279V476H1278ZM1216.12 476H1215.12V477H1216.12V476ZM1216.12 455.375V454.375H1215.12V455.375H1216.12ZM1236.75 393.5H1237.75V372.875H1236.75H1235.75V393.5H1236.75ZM1236.75 372.875V373.875H1298.62V372.875V371.875H1236.75V372.875ZM1298.62 372.875H1297.62V393.5H1298.62H1299.62V372.875H1298.62ZM1298.62 393.5V392.5H1236.75V393.5V394.5H1298.62V393.5ZM1216.12 414.125H1217.12V393.5H1216.12H1215.12V414.125H1216.12ZM1216.12 393.5V394.5H1236.75V393.5V392.5H1216.12V393.5ZM1236.75 393.5H1235.75V414.125H1236.75H1237.75V393.5H1236.75ZM1236.75 414.125V413.125H1216.12V414.125V415.125H1236.75V414.125ZM1236.75 414.125V415.125H1278V414.125V413.125H1236.75V414.125ZM1278 414.125H1277V434.75H1278H1279V414.125H1278ZM1278 434.75V433.75H1236.75V434.75V435.75H1278V434.75ZM1236.75 434.75H1237.75V414.125H1236.75H1235.75V434.75H1236.75ZM1298.62 455.375V454.375H1278V455.375V456.375H1298.62V455.375ZM1278 455.375H1279V434.75H1278H1277V455.375H1278ZM1278 434.75V435.75H1298.62V434.75V433.75H1278V434.75ZM1298.62 434.75H1297.62V455.375H1298.62H1299.62V434.75H1298.62ZM1278 455.375H1277V476H1278H1279V455.375H1278ZM1278 476V475H1216.12V476V477H1278V476ZM1216.12 476H1217.12V455.375H1216.12H1215.12V476H1216.12ZM1216.12 455.375V456.375H1278V455.375V454.375H1216.12V455.375ZM638.625 564.75V565.75H639.625V564.75H638.625ZM618 564.75H617V565.75H618V564.75ZM618 502.875V501.875H617V502.875H618ZM638.625 502.875H639.625V501.875H638.625V502.875ZM659.25 564.75H658.25V565.75H659.25V564.75ZM659.25 502.875V501.875H658.25V502.875H659.25ZM679.875 502.875H680.875V501.875H679.875V502.875ZM679.875 564.75V565.75H680.875V564.75H679.875ZM700.5 564.75H699.5V565.75H700.5V564.75ZM700.5 502.875V501.875H699.5V502.875H700.5ZM721.125 502.875H722.125V501.875H721.125V502.875ZM721.125 564.75V565.75H722.125V564.75H721.125ZM659.25 606V607H660.25V606H659.25ZM638.625 606H637.625V607H638.625V606ZM638.625 564.75V563.75H637.625V564.75H638.625ZM659.25 564.75H660.25V563.75H659.25V564.75ZM700.5 606V607H701.5V606H700.5ZM679.875 606H678.875V607H679.875V606ZM679.875 564.75V563.75H678.875V564.75H679.875ZM700.5 564.75H701.5V563.75H700.5V564.75ZM638.625 564.75V563.75H618V564.75V565.75H638.625V564.75ZM618 564.75H619V502.875H618H617V564.75H618ZM618 502.875V503.875H638.625V502.875V501.875H618V502.875ZM638.625 502.875H637.625V564.75H638.625H639.625V502.875H638.625ZM659.25 564.75H660.25V502.875H659.25H658.25V564.75H659.25ZM659.25 502.875V503.875H679.875V502.875V501.875H659.25V502.875ZM679.875 502.875H678.875V564.75H679.875H680.875V502.875H679.875ZM679.875 564.75V563.75H659.25V564.75V565.75H679.875V564.75ZM700.5 564.75H701.5V502.875H700.5H699.5V564.75H700.5ZM700.5 502.875V503.875H721.125V502.875V501.875H700.5V502.875ZM721.125 502.875H720.125V564.75H721.125H722.125V502.875H721.125ZM721.125 564.75V563.75H700.5V564.75V565.75H721.125V564.75ZM659.25 606V605H638.625V606V607H659.25V606ZM638.625 606H639.625V564.75H638.625H637.625V606H638.625ZM638.625 564.75V565.75H659.25V564.75V563.75H638.625V564.75ZM659.25 564.75H658.25V606H659.25H660.25V564.75H659.25ZM700.5 606V605H679.875V606V607H700.5V606ZM679.875 606H680.875V564.75H679.875H678.875V606H679.875ZM679.875 564.75V565.75H700.5V564.75V563.75H679.875V564.75ZM700.5 564.75H699.5V606H700.5H701.5V564.75H700.5ZM824.25 585.375H825.25V584.375H824.25V585.375ZM824.25 606V607H825.25V606H824.25ZM741.75 606H740.75V607H741.75V606ZM741.75 502.875V501.875H740.75V502.875H741.75ZM824.25 502.875H825.25V501.875H824.25V502.875ZM824.25 523.5V524.5H825.25V523.5H824.25ZM762.375 523.5V522.5H761.375V523.5H762.375ZM762.375 544.125H761.375V545.125H762.375V544.125ZM803.625 544.125H804.625V543.125H803.625V544.125ZM803.625 564.75V565.75H804.625V564.75H803.625ZM762.375 564.75V563.75H761.375V564.75H762.375ZM762.375 585.375H761.375V586.375H762.375V585.375ZM824.25 585.375H823.25V606H824.25H825.25V585.375H824.25ZM824.25 606V605H741.75V606V607H824.25V606ZM741.75 606H742.75V502.875H741.75H740.75V606H741.75ZM741.75 502.875V503.875H824.25V502.875V501.875H741.75V502.875ZM824.25 502.875H823.25V523.5H824.25H825.25V502.875H824.25ZM824.25 523.5V522.5H762.375V523.5V524.5H824.25V523.5ZM762.375 523.5H761.375V544.125H762.375H763.375V523.5H762.375ZM762.375 544.125V545.125H803.625V544.125V543.125H762.375V544.125ZM803.625 544.125H802.625V564.75H803.625H804.625V544.125H803.625ZM803.625 564.75V563.75H762.375V564.75V565.75H803.625V564.75ZM762.375 564.75H761.375V585.375H762.375H763.375V564.75H762.375ZM762.375 585.375V586.375H824.25V585.375V584.375H762.375V585.375ZM865.5 585.375H864.5V586.375H865.5V585.375ZM906.75 585.375H907.75V584.375H906.75V585.375ZM906.75 606V607H907.75V606H906.75ZM844.875 606H843.875V607H844.875V606ZM844.875 502.875V501.875H843.875V502.875H844.875ZM906.75 502.875H907.75V501.875H906.75V502.875ZM906.75 523.5V524.5H907.75V523.5H906.75ZM865.5 523.5V522.5H864.5V523.5H865.5ZM865.5 544.125H864.5V545.125H865.5V544.125ZM906.75 544.125H907.75V543.125H906.75V544.125ZM906.75 564.75V565.75H907.75V564.75H906.75ZM865.5 564.75V563.75H864.5V564.75H865.5ZM927.375 544.125V545.125H928.375V544.125H927.375ZM906.75 544.125H905.75V545.125H906.75V544.125ZM906.75 523.5V522.5H905.75V523.5H906.75ZM927.375 523.5H928.375V522.5H927.375V523.5ZM927.375 585.375V586.375H928.375V585.375H927.375ZM906.75 585.375H905.75V586.375H906.75V585.375ZM906.75 564.75V563.75H905.75V564.75H906.75ZM927.375 564.75H928.375V563.75H927.375V564.75ZM865.5 585.375V586.375H906.75V585.375V584.375H865.5V585.375ZM906.75 585.375H905.75V606H906.75H907.75V585.375H906.75ZM906.75 606V605H844.875V606V607H906.75V606ZM844.875 606H845.875V502.875H844.875H843.875V606H844.875ZM844.875 502.875V503.875H906.75V502.875V501.875H844.875V502.875ZM906.75 502.875H905.75V523.5H906.75H907.75V502.875H906.75ZM906.75 523.5V522.5H865.5V523.5V524.5H906.75V523.5ZM865.5 523.5H864.5V544.125H865.5H866.5V523.5H865.5ZM865.5 544.125V545.125H906.75V544.125V543.125H865.5V544.125ZM906.75 544.125H905.75V564.75H906.75H907.75V544.125H906.75ZM906.75 564.75V563.75H865.5V564.75V565.75H906.75V564.75ZM865.5 564.75H864.5V585.375H865.5H866.5V564.75H865.5ZM927.375 544.125V543.125H906.75V544.125V545.125H927.375V544.125ZM906.75 544.125H907.75V523.5H906.75H905.75V544.125H906.75ZM906.75 523.5V524.5H927.375V523.5V522.5H906.75V523.5ZM927.375 523.5H926.375V544.125H927.375H928.375V523.5H927.375ZM927.375 585.375V584.375H906.75V585.375V586.375H927.375V585.375ZM906.75 585.375H907.75V564.75H906.75H905.75V585.375H906.75ZM906.75 564.75V565.75H927.375V564.75V563.75H906.75V564.75ZM927.375 564.75H926.375V585.375H927.375H928.375V564.75H927.375ZM948 523.5H947V524.5H948V523.5ZM948 502.875V501.875H947V502.875H948ZM989.25 502.875H990.25V501.875H989.25V502.875ZM989.25 523.5V524.5H990.25V523.5H989.25ZM1009.88 544.125V545.125H1010.88V544.125H1009.88ZM989.25 544.125H988.25V545.125H989.25V544.125ZM989.25 523.5V522.5H988.25V523.5H989.25ZM1009.88 523.5H1010.88V522.5H1009.88V523.5ZM989.25 544.125H990.25V543.125H989.25V544.125ZM989.25 564.75V565.75H990.25V564.75H989.25ZM968.625 564.75H967.625V565.75H968.625V564.75ZM968.625 544.125V543.125H967.625V544.125H968.625ZM1009.88 585.375V586.375H1010.88V585.375H1009.88ZM989.25 585.375H988.25V586.375H989.25V585.375ZM989.25 564.75V563.75H988.25V564.75H989.25ZM1009.88 564.75H1010.88V563.75H1009.88V564.75ZM989.25 585.375H990.25V584.375H989.25V585.375ZM989.25 606V607H990.25V606H989.25ZM948 606H947V607H948V606ZM948 585.375V584.375H947V585.375H948ZM948 523.5H949V502.875H948H947V523.5H948ZM948 502.875V503.875H989.25V502.875V501.875H948V502.875ZM989.25 502.875H988.25V523.5H989.25H990.25V502.875H989.25ZM989.25 523.5V522.5H948V523.5V524.5H989.25V523.5ZM1009.88 544.125V543.125H989.25V544.125V545.125H1009.88V544.125ZM989.25 544.125H990.25V523.5H989.25H988.25V544.125H989.25ZM989.25 523.5V524.5H1009.88V523.5V522.5H989.25V523.5ZM1009.88 523.5H1008.88V544.125H1009.88H1010.88V523.5H1009.88ZM989.25 544.125H988.25V564.75H989.25H990.25V544.125H989.25ZM989.25 564.75V563.75H968.625V564.75V565.75H989.25V564.75ZM968.625 564.75H969.625V544.125H968.625H967.625V564.75H968.625ZM968.625 544.125V545.125H989.25V544.125V543.125H968.625V544.125ZM1009.88 585.375V584.375H989.25V585.375V586.375H1009.88V585.375ZM989.25 585.375H990.25V564.75H989.25H988.25V585.375H989.25ZM989.25 564.75V565.75H1009.88V564.75V563.75H989.25V564.75ZM1009.88 564.75H1008.88V585.375H1009.88H1010.88V564.75H1009.88ZM989.25 585.375H988.25V606H989.25H990.25V585.375H989.25ZM989.25 606V605H948V606V607H989.25V606ZM948 606H949V585.375H948H947V606H948ZM948 585.375V586.375H989.25V585.375V584.375H948V585.375Z" fill="black" mask="url(#path-7-outside-1_101_140)"/>
</g>
<path d="M530 345V325H570V345H530ZM590 365H570V345H590V365ZM570 365V385H550V365H570ZM590 405H570V385H590V405ZM570 405V425H530V405H570Z" fill="#16FF00"/>
<rect x="389" y="322" width="18" height="341" fill="#FEFEFE"/>
<rect x="568" y="483" width="18" height="341" transform="rotate(90 568 483)" fill="#FEFEFE"/>
<rect x="365" y="459" width="66" height="66" fill="#FEFEFE"/>
<rect x="431" y="525" width="18" height="18" fill="#FEFEFE"/>
<rect x="347" y="525" width="18" height="18" fill="#FEFEFE"/>
<rect x="347" y="441" width="18" height="18" fill="#FEFEFE"/>
<rect x="431" y="441" width="18" height="18" fill="#FEFEFE"/>
<rect x="449" y="423" width="18" height="18" fill="#FEFEFE"/>
<rect x="467" y="405" width="18" height="18" fill="#FEFEFE"/>
<rect x="485" y="387" width="18" height="18" fill="#FEFEFE"/>
<rect x="503" y="369" width="18" height="18" fill="#FEFEFE"/>
<rect x="329" y="423" width="18" height="18" fill="#FEFEFE"/>
<rect x="311" y="405" width="18" height="18" fill="#D9D9D9"/>
<rect x="293" y="387" width="18" height="18" fill="#FEFEFE"/>
<rect x="275" y="369" width="18" height="18" fill="#FEFEFE"/>
<rect x="329" y="543" width="18" height="18" fill="#FEFEFE"/>
<rect x="311" y="561" width="18" height="18" fill="#FEFEFE"/>
<rect x="293" y="579" width="18" height="18" fill="#FEFEFE"/>
<rect x="275" y="597" width="18" height="18" fill="#FEFEFE"/>
<rect x="449" y="543" width="18" height="18" fill="#FEFEFE"/>
<rect x="467" y="561" width="18" height="18" fill="#FEFEFE"/>
<rect x="485" y="579" width="18" height="18" fill="#FEFEFE"/>
<rect x="503" y="597" width="18" height="18" fill="#FEFEFE"/>
<rect x="390" y="485" width="17" height="16" fill="black"/>
</g>
<defs>
<filter id="filter0_d_101_140" x="613" y="371.875" width="690.625" height="243.125" filterUnits="userSpaceOnUse" color-interpolation-filters="sRGB">
<feFlood flood-opacity="0" result="BackgroundImageFix"/>
<feColorMatrix in="SourceAlpha" type="matrix" values="0 0 0 0 0 0 0 0 0 0 0 0 0 0 0 0 0 0 127 0" result="hardAlpha"/>
<feOffset dy="4"/>
<feGaussianBlur stdDeviation="2"/>
<feComposite in2="hardAlpha" operator="out"/>
<feColorMatrix type="matrix" values="0 0 0 0 0 0 0 0 0 0 0 0 0 0 0 0 0 0 0.25 0"/>
<feBlend mode="normal" in2="BackgroundImageFix" result="effect1_dropShadow_101_140"/>
<feBlend mode="normal" in="SourceGraphic" in2="effect1_dropShadow_101_140" result="shape"/>
</filter>
<clipPath id="clip0_101_140">
<rect width="1536" height="1024" fill="white"/>
</clipPath>
</defs>
</svg>
