<svg width="207" height="113" viewBox="0 0 207 113" fill="none" xmlns="http://www.w3.org/2000/svg">
<path fill-rule="evenodd" clip-rule="evenodd" d="M14.1633 1.98607e-08C13.3656 1.98607e-08 12.5728 0.21461 11.8705 0.621687L3.18078 5.6582C2.41374 6.10264 1.77318 6.76129 1.32701 7.56432C0.880838 8.36735 0.645688 9.28484 0.646486 10.2195V90.8174C0.646486 92.6637 1.57123 94.384 3.06161 95.3071L29.3929 111.635C30.1243 112.088 30.9539 112.327 31.7988 112.329C32.6436 112.331 33.4741 112.095 34.2072 111.645L43.8725 105.704C44.6102 105.249 45.2231 104.593 45.6495 103.804C46.076 103.014 46.301 102.118 46.3019 101.205V22.5579C46.2999 21.6585 46.0807 20.7751 45.6659 19.9934C45.251 19.2118 44.6546 18.5585 43.9345 18.097L16.626 0.723882C15.8806 0.249963 15.0299 -8.13651e-05 14.1633 1.98607e-08ZM14.1633 1.50227C14.7686 1.50227 15.374 1.6743 15.911 2.01665L43.221 19.3898C43.7336 19.7161 44.1581 20.1798 44.4528 20.7353C44.7476 21.2907 44.9024 21.9188 44.9021 22.5579V101.207C44.9021 102.527 44.2427 103.745 43.1766 104.401L33.5113 110.342C32.9928 110.66 32.4055 110.828 31.808 110.827C31.2054 110.827 30.6134 110.657 30.092 110.333L3.76073 94.0093C3.23866 93.6858 2.80522 93.2206 2.504 92.6606C2.20278 92.1006 2.04437 91.4655 2.04472 90.8191V10.2195C2.04472 8.86713 2.73589 7.62205 3.84494 6.97992L12.533 1.94511C13.0415 1.64875 13.6024 1.50227 14.1617 1.50227" fill="white"/>
<path fill-rule="evenodd" clip-rule="evenodd" d="M6.88352 14.3755L29.9543 28.6181C30.4771 28.9414 30.9113 29.4067 31.2131 29.967C31.5149 30.5273 31.6737 31.163 31.6735 31.81V105.055C31.6735 105.666 31.2128 106.16 30.6439 106.16C30.4644 106.16 30.288 106.11 30.1323 106.014L5.93018 91.0848C5.72078 90.9556 5.5469 90.7695 5.4261 90.5452C5.3053 90.3209 5.24186 90.0664 5.24219 89.8074L5.34229 15.3293C5.34229 14.7195 5.80466 14.2273 6.37349 14.2273C6.55252 14.2274 6.72839 14.2797 6.88352 14.3755ZM7.89406 17.1637C7.79017 17.0994 7.67241 17.0654 7.55245 17.0649C7.3704 17.0649 7.19581 17.1424 7.06709 17.2804C6.93836 17.4184 6.86604 17.6056 6.86604 17.8007L6.84221 88.8774C6.84198 88.9418 6.8573 89.0052 6.8867 89.0614C6.98203 89.2368 7.18859 89.2998 7.35384 89.1976L29.9639 75.4115C30.0165 75.3789 30.0601 75.332 30.0903 75.2754C30.1204 75.2188 30.136 75.1547 30.1355 75.0896V32.5832C30.1355 31.5272 29.6111 30.5547 28.7595 30.0284L7.89406 17.1637ZM73.9017 67.7997C73.8005 67.7998 73.7003 67.7777 73.6073 67.7346C73.5144 67.6916 73.4307 67.6285 73.3615 67.5493C73.2879 67.4745 73.2294 67.3844 73.1895 67.2846C73.1496 67.1847 73.1292 67.0771 73.1295 66.9685V51.3463C73.1295 51.101 73.2058 50.9034 73.3615 50.7467C73.5061 50.5963 73.7002 50.5131 73.9017 50.5151H77.4879C77.5904 50.5106 77.6928 50.5289 77.7884 50.5688C77.8841 50.6086 77.9711 50.6692 78.044 50.7467C78.1159 50.8258 78.1722 50.9197 78.2093 51.0228C78.2464 51.1258 78.2637 51.2359 78.2601 51.3463V52.4755C78.7914 51.8015 79.4428 51.2479 80.1763 50.8472C80.9596 50.4044 81.8462 50.1829 82.8361 50.1829C85.1019 50.1829 86.659 51.1368 87.5027 53.041C88.0194 52.177 88.7323 51.4679 89.5746 50.9801C90.4418 50.4536 91.4222 50.1789 92.4188 50.1829C94.1078 50.1829 95.4837 50.7961 96.5451 52.0276C97.6065 53.2573 98.1372 55.09 98.1372 57.5291V66.9685C98.1378 67.0777 98.1183 67.1859 98.0796 67.287C98.041 67.388 97.984 67.4798 97.9121 67.5571C97.8401 67.6344 97.7546 67.6956 97.6604 67.7373C97.5662 67.7789 97.4653 67.8001 97.3634 67.7997H93.5612C93.3493 67.8054 93.1439 67.7216 92.9892 67.5663C92.913 67.4901 92.8529 67.3974 92.8129 67.2943C92.7729 67.1912 92.7539 67.0801 92.7572 66.9685V57.7607C92.7572 56.7422 92.557 55.9944 92.155 55.5175C91.753 55.0406 91.2128 54.8021 90.5327 54.8021C89.894 54.8021 89.3728 55.0406 88.9708 55.5175C88.5689 55.9944 88.3671 56.7422 88.3671 57.7607V66.9685C88.3677 67.0774 88.3482 67.1854 88.3098 67.2862C88.2713 67.387 88.2147 67.4787 88.143 67.5559C88.0714 67.6332 87.9863 67.6945 87.8925 67.7363C87.7986 67.7781 87.698 67.7997 87.5964 67.7997H83.7942C83.5824 67.8054 83.3769 67.7216 83.2222 67.5663C83.146 67.4901 83.0859 67.3974 83.0459 67.2943C83.0059 67.1912 82.9869 67.0801 82.9902 66.9685V57.7607C82.9902 56.7422 82.7837 55.9944 82.3706 55.5175C81.959 55.0406 81.4236 54.8021 80.7658 54.8021C80.1254 54.8021 79.5995 55.0406 79.188 55.5175C78.7749 55.9944 78.5683 56.7302 78.5683 57.7266V66.9685C78.5689 67.0775 78.5494 67.1856 78.5109 67.2866C78.4723 67.3875 78.4155 67.4792 78.3437 67.5565C78.272 67.6338 78.1866 67.6951 78.0926 67.7368C77.9986 67.7785 77.8978 67.7999 77.7961 67.7997H73.9017ZM107.945 68.1301C105.349 68.1301 103.355 67.4829 101.965 66.185C100.573 64.8905 99.8167 63.0442 99.6927 60.6511C99.6721 60.3616 99.661 59.8642 99.661 59.1557C99.661 58.4454 99.6721 57.9464 99.6927 57.6602C99.8167 55.3097 100.594 53.477 102.027 52.1587C103.457 50.8404 105.432 50.1812 107.945 50.1812C110.459 50.1812 112.433 50.8404 113.866 52.157C115.297 53.477 116.074 55.3097 116.2 57.6585C116.241 58.2359 116.262 58.735 116.262 59.1557C116.262 59.5764 116.241 60.0754 116.198 60.6511C116.076 63.0442 115.318 64.8888 113.926 66.1867C112.536 67.4812 110.542 68.1301 107.945 68.1301ZM107.945 63.9418C108.791 63.9418 109.418 63.6591 109.832 63.0936C110.245 62.5298 110.48 61.6594 110.542 60.4842C110.562 60.2628 110.574 59.8199 110.574 59.1557C110.574 58.4914 110.562 58.0485 110.542 57.8271C110.48 56.6723 110.243 55.8088 109.832 55.2331C109.418 54.6574 108.791 54.3678 107.945 54.3678C107.1 54.3678 106.473 54.6574 106.059 55.2331C105.648 55.8088 105.411 56.6723 105.349 57.8254L105.317 59.154L105.349 60.4842C105.411 61.6594 105.648 62.5281 106.059 63.0936C106.473 63.6591 107.1 63.9418 107.945 63.9418ZM118.682 67.798C118.58 67.798 118.48 67.7758 118.387 67.7328C118.294 67.6897 118.211 67.6267 118.141 67.5476C118.068 67.4728 118.009 67.3827 117.969 67.2829C117.93 67.183 117.909 67.0754 117.909 66.9668V51.3446C117.908 51.2353 117.927 51.1269 117.966 51.0257C118.004 50.9244 118.061 50.8324 118.133 50.755C118.205 50.6776 118.29 50.6163 118.384 50.5748C118.479 50.5333 118.58 50.5125 118.682 50.5134H122.486C122.711 50.5134 122.897 50.59 123.042 50.745C123.114 50.8241 123.17 50.918 123.207 51.0211C123.244 51.1241 123.261 51.2342 123.258 51.3446V52.6067C123.814 51.8743 124.529 51.2883 125.406 50.8455C126.281 50.4027 127.286 50.1812 128.42 50.1812C129.594 50.1812 130.64 50.4691 131.557 51.0448C132.473 51.6205 133.195 52.4755 133.721 53.6048C134.245 54.734 134.509 56.0966 134.509 57.6926V66.9668C134.509 67.0758 134.49 67.1839 134.451 67.2849C134.413 67.3858 134.356 67.4775 134.284 67.5548C134.212 67.6321 134.127 67.6934 134.033 67.7351C133.939 67.7768 133.838 67.7982 133.737 67.798H129.624C129.413 67.8039 129.207 67.72 129.052 67.5646C128.977 67.4883 128.917 67.3955 128.877 67.2924C128.837 67.1893 128.819 67.0783 128.822 66.9668V57.8936C128.822 56.8972 128.6 56.1324 128.156 55.601C127.713 55.0679 127.069 54.8021 126.224 54.8021C125.401 54.8021 124.751 55.0747 124.278 55.6163C123.803 56.1596 123.566 56.9193 123.566 57.8936V66.9685C123.567 67.0775 123.547 67.1856 123.509 67.2866C123.47 67.3875 123.413 67.4792 123.341 67.5565C123.27 67.6338 123.184 67.6951 123.09 67.7368C122.996 67.7785 122.895 67.7999 122.794 67.7997L118.682 67.798ZM144.319 68.1301C141.722 68.1301 139.727 67.4829 138.336 66.185C136.946 64.8905 136.188 63.0442 136.064 60.6511C136.044 60.3616 136.032 59.8642 136.032 59.1557C136.032 58.4454 136.044 57.9464 136.064 57.6602C136.188 55.3097 136.967 53.477 138.4 52.1587C139.83 50.8404 141.803 50.1812 144.319 50.1812C146.832 50.1812 148.806 50.8404 150.237 52.157C151.67 53.477 152.447 55.3097 152.573 57.6585C152.613 58.2359 152.633 58.735 152.633 59.1557C152.633 59.5764 152.613 60.0754 152.571 60.6511C152.447 63.0442 151.691 64.8888 150.299 66.1867C148.909 67.4812 146.915 68.1301 144.319 68.1301ZM144.319 63.9418C145.164 63.9418 145.791 63.6591 146.205 63.0936C146.616 62.5298 146.853 61.6594 146.915 60.4842C146.935 60.2628 146.947 59.8199 146.947 59.1557C146.947 58.4914 146.935 58.0485 146.915 57.8271C146.853 56.6723 146.616 55.8088 146.205 55.2331C145.791 54.6574 145.164 54.3678 144.319 54.3678C143.473 54.3678 142.844 54.6574 142.433 55.2331C142.019 55.8088 141.784 56.6723 141.722 57.8254L141.691 59.154L141.722 60.4842C141.784 61.6594 142.021 62.5281 142.433 63.0936C142.846 63.6591 143.473 63.9418 144.319 63.9418ZM155.087 67.798C154.875 67.8037 154.669 67.7199 154.515 67.5646C154.438 67.4884 154.378 67.3957 154.338 67.2926C154.298 67.1895 154.279 67.0784 154.283 66.9668V45.0289C154.279 44.917 154.298 44.8056 154.338 44.7022C154.378 44.5987 154.438 44.5057 154.515 44.4293C154.669 44.2745 154.875 44.1913 155.087 44.1977H158.949C159.052 44.1933 159.154 44.2116 159.25 44.2514C159.345 44.2913 159.432 44.3518 159.505 44.4293C159.578 44.5082 159.634 44.602 159.672 44.7051C159.709 44.8082 159.727 44.9183 159.723 45.0289V66.9668C159.724 67.076 159.704 67.1842 159.665 67.2853C159.627 67.3863 159.57 67.4781 159.498 67.5554C159.426 67.6327 159.34 67.6939 159.246 67.7356C159.152 67.7772 159.051 67.7984 158.949 67.798H155.087ZM162.604 49.0179C162.5 49.0213 162.396 49.0007 162.3 48.9575C162.204 48.9143 162.118 48.8495 162.048 48.7675C161.904 48.6012 161.826 48.3812 161.831 48.1544V45.0613C161.829 44.9475 161.848 44.8344 161.888 44.729C161.928 44.6235 161.988 44.5279 162.063 44.4481C162.133 44.369 162.216 44.3059 162.309 44.2629C162.402 44.2198 162.502 44.1976 162.604 44.1977H166.468C166.574 44.1952 166.679 44.2159 166.778 44.2587C166.876 44.3015 166.965 44.3653 167.04 44.4464C167.116 44.5265 167.175 44.6224 167.215 44.7281C167.255 44.8339 167.274 44.9472 167.272 45.0613V48.1527C167.274 48.2667 167.255 48.3801 167.215 48.4858C167.175 48.5915 167.116 48.6874 167.04 48.7675C166.966 48.8491 166.877 48.9134 166.778 48.9564C166.68 48.9995 166.574 49.0204 166.468 49.0179H162.604ZM162.731 67.798C162.63 67.7981 162.529 67.776 162.436 67.7329C162.343 67.6899 162.26 67.6268 162.191 67.5476C162.117 67.4728 162.058 67.3827 162.019 67.2829C161.979 67.183 161.958 67.0754 161.959 66.9668V51.3446C161.959 51.0993 162.035 50.9017 162.191 50.745C162.335 50.5946 162.529 50.5114 162.731 50.5134H166.595C166.822 50.5134 167.013 50.59 167.167 50.745C167.243 50.8214 167.304 50.9144 167.344 51.0178C167.384 51.1212 167.402 51.2327 167.399 51.3446V66.9668C167.402 67.0784 167.383 67.1895 167.343 67.2926C167.303 67.3957 167.243 67.4884 167.167 67.5646C167.012 67.7199 166.807 67.8037 166.595 67.798H162.731ZM171.66 66.6295L171.521 55.0338H169.078C168.977 55.034 168.877 55.0118 168.784 54.9688C168.691 54.9257 168.607 54.8626 168.538 54.7834C168.465 54.7089 168.406 54.6191 168.367 54.5195C168.327 54.4199 168.306 54.3127 168.306 54.2043V51.3428C168.306 51.0993 168.382 50.9 168.538 50.7467C168.683 50.5957 168.877 50.5118 169.078 50.5134H171.521V45.0289C171.519 44.9197 171.539 44.8114 171.577 44.7103C171.615 44.6091 171.672 44.5172 171.744 44.4398C171.816 44.3625 171.902 44.3012 171.996 44.2597C172.09 44.2181 172.191 44.197 172.293 44.1977H176.095C176.198 44.1933 176.3 44.2116 176.396 44.2514C176.491 44.2913 176.578 44.3518 176.651 44.4293C176.723 44.5082 176.78 44.602 176.818 44.7051C176.855 44.8082 176.872 44.9183 176.869 45.0289V50.5134H179.443C179.672 50.5134 179.862 50.59 180.015 50.745C180.092 50.8211 180.152 50.914 180.193 51.0175C180.233 51.1209 180.252 51.2325 180.248 51.3446V54.2026C180.252 54.3142 180.233 54.4253 180.193 54.5284C180.153 54.6315 180.093 54.7243 180.016 54.8004C179.862 54.9559 179.656 55.0397 179.444 55.0338H176.869V66.6176C176.869 66.8615 176.778 67.0955 176.617 67.268C176.457 67.4405 176.238 67.5374 176.011 67.5374H172.518C172.293 67.5374 172.076 67.4421 171.916 67.2722C171.755 67.1023 171.663 66.8714 171.66 66.6295ZM182.085 67.798C181.873 67.8039 181.668 67.72 181.513 67.5646C181.437 67.4884 181.377 67.3957 181.337 67.2926C181.297 67.1895 181.278 67.0784 181.281 66.9668V45.0289C181.281 44.7853 181.359 44.586 181.513 44.4293C181.668 44.2744 181.873 44.1912 182.085 44.1977H186.259C186.471 44.1919 186.676 44.275 186.831 44.4293C186.907 44.5059 186.967 44.599 187.007 44.7024C187.047 44.8058 187.065 44.9171 187.062 45.0289V52.4414C188.258 50.9341 189.874 50.1812 191.916 50.1812C193.029 50.1645 194.126 50.4624 195.098 51.0448C196.047 51.6205 196.789 52.4755 197.324 53.6048C197.86 54.734 198.128 56.0966 198.128 57.6926V66.9668C198.132 67.0784 198.113 67.1895 198.073 67.2926C198.033 67.3957 197.972 67.4884 197.896 67.5646C197.742 67.7199 197.536 67.8037 197.324 67.798H193.122C193.02 67.7983 192.92 67.7762 192.826 67.7331C192.733 67.6901 192.649 67.6269 192.58 67.5476C192.506 67.4728 192.448 67.3827 192.408 67.2829C192.368 67.183 192.348 67.0754 192.348 66.9668V57.8936C192.348 56.9193 192.121 56.1596 191.668 55.6163C191.215 55.0747 190.565 54.8021 189.72 54.8021C188.897 54.8021 188.247 55.0747 187.773 55.6163C187.3 56.1596 187.062 56.9193 187.062 57.8936V66.9685C187.065 67.0801 187.046 67.1912 187.006 67.2943C186.966 67.3974 186.906 67.4901 186.83 67.5663C186.675 67.7217 186.469 67.8056 186.258 67.7997L182.085 67.798ZM202.147 67.798C201.935 67.8037 201.729 67.7199 201.575 67.5646C201.498 67.4884 201.438 67.3957 201.398 67.2926C201.358 67.1895 201.339 67.0784 201.343 66.9668V62.5792C201.343 62.3356 201.42 62.1295 201.575 61.9643C201.649 61.8829 201.738 61.8186 201.836 61.7756C201.935 61.7325 202.04 61.7115 202.147 61.7139H206.227C206.454 61.7139 206.64 61.7991 206.783 61.9643C206.928 62.1308 207.006 62.3516 207.001 62.5792V66.9668C207.001 67.076 206.982 67.1842 206.943 67.2853C206.904 67.3863 206.847 67.4781 206.776 67.5554C206.704 67.6327 206.618 67.6939 206.524 67.7356C206.43 67.7772 206.329 67.7984 206.227 67.798H202.147Z" fill="white"/>
</svg>
