<svg  height="40px" xmlns="http://www.w3.org/2000/svg" fill="none" viewBox="0 0 131 30"><g clip-path="url(#logo-a-footer)"><path fill="#fff" d="M6.00006 4.93763c-.72401.4272-1.29398 1.1161-1.72146 2.05132V4.31031H0V23.2224h4.55589V12.6888c0-1.4356.39281-2.5555 1.18229-3.35604.78948-.80052 1.83314-1.20077 3.13097-1.20077h1.63675V4.09863h-1.113c-1.32093 0-2.45317.2771-3.39284.83515v.00385ZM28.0126 6.63903c-.7895-.85824-1.7445-1.53175-2.8691-2.01668-1.1245-.48877-2.43-.73124-3.9127-.73124-1.7638 0-3.3582.4272-4.7831 1.28544-1.4249.85825-2.5495 2.02053-3.3736 3.49455-.8241 1.474-1.2362 3.1597-1.2362 5.0571 0 1.8974.4044 3.4984 1.2169 5.007.8126 1.5049 1.9487 2.7018 3.4083 3.5793 1.4596.8813 3.1656 1.32 5.1143 1.32 1.2978 0 2.4878-.1962 3.5661-.5926 1.0784-.3965 2.0103-.9391 2.7998-1.6319.7895-.6966 1.3672-1.4932 1.7407-2.3977l-3.6855-1.8088c-.4159.7428-.9936 1.3316-1.7215 1.7742-.7317.4388-1.6174.662-2.6611.662-1.0436 0-1.9641-.2425-2.7651-.7313-.801-.4849-1.4018-1.1776-1.81-2.0667-.2465-.5465-.3928-1.1469-.4545-1.7896h13.6176c.0925-.254.1579-.5542.1926-.9044.0346-.3464.0539-.6812.0539-1.0084 0-1.2738-.208-2.4631-.6277-3.56377-.416-1.10071-1.0206-2.08211-1.8101-2.9365ZM18.689 8.35936c.7433-.47338 1.5867-.71199 2.5379-.71199.9513 0 1.8486.24246 2.5572.73124.7086.48492 1.2169 1.14689 1.5327 1.98199.1425.3811.2234.789.2581 1.2162h-8.8923c.077-.4002.1772-.7851.3197-1.1315.3812-.91596.9435-1.61256 1.6867-2.08594Z"></path><path fill="#D60B52" d="M38.4573 25.1353h-4.5559v4.8646h4.5559v-4.8646ZM38.4573 4.10254h-4.5559V23.0147h4.5559V4.10254Z"></path><path fill="#fff" d="M56.0913 4.79554c-1.0783-.60039-2.3145-.90443-3.7048-.90443-1.3903 0-2.5225.29635-3.5315.88519-.7818.45798-1.3864 1.08146-1.8254 1.86273V4.30676H42.751V23.2189h4.5559V12.131c0-.8351.1617-1.551.4852-2.15522.3235-.60423.7779-1.07376 1.3556-1.40859.5777-.33483 1.2401-.50417 1.9833-.50417.7433 0 1.4327.16934 1.9988.50417.5699.33483 1.0128.80436 1.3402 1.40859.3235.60042.4852 1.32012.4852 2.15522v11.0879h4.5559V11.0534c0-1.41245-.3004-2.6594-.905-3.73701-.6047-1.07762-1.4442-1.91662-2.5225-2.52085h.0077ZM70.3101 16.6531 65.8389 4.31055h-4.9756l7.4442 18.91215h4.036l7.4442-18.91215h-4.9756l-4.502 12.34255ZM96.6249 6.63903c-.7894-.85824-1.7445-1.53175-2.8691-2.01668-1.1245-.48877-2.43-.73124-3.9127-.73124-1.7638 0-3.3582.4272-4.7831 1.28544-1.4249.85825-2.5494 2.02053-3.3736 3.49455-.8241 1.474-1.2362 3.1597-1.2362 5.0571 0 1.8974.4044 3.4984 1.217 5.007.8125 1.5049 1.9486 2.7018 3.4082 3.5793 1.4596.8813 3.1656 1.32 5.1143 1.32 1.2978 0 2.4878-.1962 3.5661-.5926 1.0784-.3926 2.0103-.9391 2.7998-1.6319.7895-.6966 1.3672-1.4932 1.7407-2.3977l-3.6855-1.8088c-.4159.7428-.9936 1.3316-1.7215 1.7742-.7317.4388-1.6174.662-2.6611.662-1.0436 0-1.9641-.2425-2.7651-.7313-.801-.4849-1.4018-1.1776-1.81-2.0667-.2465-.5465-.3928-1.1469-.4545-1.7896h13.6176c.0925-.254.1579-.5542.1926-.9044.0346-.3464.0539-.6812.0539-1.0084 0-1.2738-.208-2.4631-.6239-3.56377-.4159-1.10071-1.0205-2.08211-1.81-2.9365h-.0039Zm-9.3197 1.72033c.7433-.47338 1.5867-.71199 2.5379-.71199s1.8485.24246 2.5571.73124c.7087.48492 1.217 1.14689 1.5328 1.98199.1425.3811.2234.789.258 1.2162h-8.8922c.077-.4002.1771-.7851.3196-1.1315.3813-.91596.9435-1.61256 1.6868-2.08594ZM107.077 8.13577c.439-.34638 1.043-.51956 1.81-.51956.951 0 1.81.254 2.572.76587.767.50802 1.31 1.19307 1.637 2.05132l3.477-1.63567c-.581-1.55099-1.555-2.75561-2.923-3.61385-1.367-.85825-2.946-1.28544-4.733-1.28544-1.367 0-2.58.24246-3.635.73124-1.055.48492-1.879 1.16613-2.469 2.03207-.589.86979-.885 1.88582-.885 3.04426 0 1.29699.412 2.42079 1.236 3.37139.824.9506 2.033 1.6588 3.635 2.1206l3.097.8698c.392.1154.758.2617 1.097.4349.335.1732.601.381.801.6273.197.2425.297.5503.297.9198 0 .6043-.243 1.0892-.732 1.4586-.489.3695-1.148.5581-1.983.5581-1.067 0-2.034-.3002-2.904-.9044-.87-.6043-1.548-1.4356-2.033-2.5055l-3.409 1.6357c.559 1.6472 1.583 2.948 3.077 3.9102 1.495.9621 3.251 1.4432 5.269 1.4432 1.436 0 2.692-.2425 3.758-.7312 1.067-.485 1.903-1.1662 2.504-2.0321.6-.8698.905-1.8704.905-3.0058 0-1.3431-.424-2.4785-1.271-3.406-.847-.9275-2.045-1.6241-3.601-2.086l-3.027-.9044c-.439-.1385-.828-.2886-1.167-.4503-.335-.1616-.597-.3694-.782-.6273-.185-.254-.277-.55419-.277-.90442 0-.55805.22-1.00834.662-1.35471l-.003-.0077ZM130.356 19.3971c-.219.023-.412.0346-.573.0346-.744 0-1.352-.1155-1.826-.3464s-.824-.5657-1.043-1.0083c-.22-.4388-.332-.9737-.332-1.5972V8.3823h4.348v-4.068h-4.348V0h-4.556v1.46248c0 .92751-.254 1.63181-.766 2.12059-.508.48492-1.228.73123-2.157.73123h-.346v4.068h3.269v8.3438c0 2.1321.586 3.7832 1.757 4.9532 1.17 1.17 2.822 1.755 4.956 1.755.347 0 .732-.0231 1.148-.0693.416-.0462.785-.0924 1.113-.1386v-3.8948c-.208.0231-.424.0462-.644.0693v-.0038Z"></path></g><defs><clipPath id="logo-a-footer"><path fill="#fff" d="M0 0h131v30H0z"></path></clipPath></defs></svg>