<svg width="259" height="52" viewBox="0 0 259 52" fill="none" xmlns="http://www.w3.org/2000/svg">
<path opacity="0.62" d="M10.5994 41.1236L17.1745 33.0394C17.861 32.1954 19.1534 32.1954 19.8399 33.0394L26.415 41.1236C26.9264 41.7528 26.9264 42.6518 26.415 43.2809L19.8399 51.3651C19.1534 52.2092 17.861 52.2092 17.1745 51.3651L10.5994 43.2809C10.088 42.6518 10.088 41.7528 10.5994 41.1236Z" fill="#2DB1FF"/>
<path d="M20.8143 21.3544L27.3893 13.2701C28.0758 12.4261 29.3682 12.4261 30.0548 13.2701L36.6298 21.3544C37.1413 21.9835 37.1413 22.8825 36.6298 23.5116L30.0548 31.5958C29.3682 32.4399 28.0758 32.4399 27.3893 31.5958L20.8143 23.5116C20.3028 22.8825 20.3028 21.9835 20.8143 21.3544Z" fill="#2DB1FF"/>
<path d="M0.383586 21.3544L6.95865 13.2701C7.64517 12.4261 8.93757 12.4261 9.62409 13.2701L16.1992 21.3544C16.7106 21.9835 16.7106 22.8825 16.1992 23.5116L9.62409 31.5958C8.93757 32.4399 7.64517 32.4399 6.95865 31.5958L0.383586 23.5116C-0.127862 22.8825 -0.127862 21.9835 0.383586 21.3544Z" fill="#2DB1FF"/>
<path d="M10.5994 8.71826L17.1745 0.633038C17.861 -0.211013 19.1534 -0.211013 19.8399 0.633038L26.415 8.71727C26.9264 9.34639 26.9264 10.2454 26.415 10.8745L19.8399 18.9587C19.1534 19.8028 17.861 19.8028 17.1745 18.9587L10.5994 10.8755C10.088 10.2464 10.088 9.34639 10.5994 8.71826Z" fill="#2DB1FF"/>
<path d="M249.568 26.2705L259.001 36.4834H253.282L245.705 27.6818V36.4834H241.472V9.00146H245.705V24.9707L253.133 16.0205H259.001L249.568 26.2705Z" fill="white"/>
<path d="M231.778 18.9915C232.397 17.9517 233.214 17.147 234.229 16.5776C235.269 15.9834 236.494 15.6863 237.905 15.6863V20.0685H236.828C235.17 20.0685 233.907 20.4894 233.04 21.3312C232.199 22.173 231.778 23.6338 231.778 25.7135V36.4834H227.544V16.0205H231.778V18.9915Z" fill="white"/>
<path d="M213.065 36.8177C211.134 36.8177 209.389 36.3844 207.829 35.5179C206.269 34.6266 205.044 33.3886 204.152 31.8041C203.261 30.1948 202.815 28.3379 202.815 26.2334C202.815 24.1537 203.273 22.3092 204.19 20.6999C205.106 19.0906 206.356 17.8527 207.94 16.9861C209.525 16.1196 211.295 15.6863 213.251 15.6863C215.207 15.6863 216.977 16.1196 218.562 16.9861C220.146 17.8527 221.397 19.0906 222.313 20.6999C223.229 22.3092 223.687 24.1537 223.687 26.2334C223.687 28.3131 223.216 30.1576 222.276 31.767C221.335 33.3763 220.047 34.6266 218.413 35.5179C216.804 36.3844 215.021 36.8177 213.065 36.8177ZM213.065 33.141C214.155 33.141 215.17 32.8811 216.111 32.3612C217.076 31.8412 217.856 31.0613 218.45 30.0215C219.045 28.9816 219.342 27.7189 219.342 26.2334C219.342 24.7479 219.057 23.4976 218.488 22.4825C217.918 21.4426 217.163 20.6627 216.222 20.1428C215.281 19.6229 214.266 19.3629 213.177 19.3629C212.088 19.3629 211.072 19.6229 210.132 20.1428C209.216 20.6627 208.485 21.4426 207.94 22.4825C207.396 23.4976 207.123 24.7479 207.123 26.2334C207.123 28.4369 207.68 30.1453 208.795 31.3584C209.934 32.5468 211.357 33.141 213.065 33.141Z" fill="white"/>
<path d="M201.353 16.0205L195.002 36.4834H190.546L186.424 21.3684L182.301 36.4834H177.845L171.457 16.0205H175.765L180.036 32.4726L184.381 16.0205H188.8L192.96 32.3983L197.194 16.0205H201.353Z" fill="white"/>
<path d="M165.32 19.4744V30.8015C165.32 31.569 165.493 32.126 165.839 32.4727C166.211 32.7945 166.83 32.9555 167.696 32.9555H170.296V36.4836H166.954C165.047 36.4836 163.586 36.0379 162.571 35.1466C161.556 34.2553 161.049 32.8069 161.049 30.8015V19.4744H158.635V16.0206H161.049V10.9327H165.32V16.0206H170.296V19.4744H165.32Z" fill="white"/>
<path d="M156.54 25.7506C156.54 26.5181 156.49 27.2114 156.391 27.8303H140.756C140.88 29.4644 141.487 30.7766 142.576 31.767C143.665 32.7573 145.002 33.2525 146.587 33.2525C148.865 33.2525 150.474 32.2993 151.415 30.3928H155.983C155.364 32.2745 154.237 33.8219 152.603 35.0351C150.994 36.2235 148.988 36.8177 146.587 36.8177C144.631 36.8177 142.873 36.3844 141.313 35.5179C139.778 34.6266 138.565 33.3886 137.674 31.8041C136.807 30.1948 136.374 28.3379 136.374 26.2334C136.374 24.1289 136.795 22.2844 137.637 20.6999C138.503 19.0906 139.704 17.8527 141.239 16.9861C142.799 16.1196 144.581 15.6863 146.587 15.6863C148.518 15.6863 150.239 16.1072 151.749 16.949C153.259 17.7908 154.435 18.9792 155.277 20.5142C156.119 22.0245 156.54 23.7699 156.54 25.7506ZM152.12 24.4137C152.096 22.8539 151.539 21.6036 150.449 20.6627C149.36 19.7219 148.011 19.2515 146.401 19.2515C144.94 19.2515 143.69 19.7219 142.65 20.6627C141.61 21.5788 140.991 22.8291 140.793 24.4137H152.12Z" fill="white"/>
<path d="M124.319 15.6863C125.929 15.6863 127.365 16.0205 128.627 16.689C129.915 17.3575 130.918 18.3478 131.636 19.66C132.354 20.9722 132.713 22.5568 132.713 24.4137V36.4834H128.516V25.045C128.516 23.2129 128.058 21.814 127.142 20.8484C126.226 19.8581 124.976 19.3629 123.391 19.3629C121.806 19.3629 120.544 19.8581 119.603 20.8484C118.687 21.814 118.229 23.2129 118.229 25.045V36.4834H113.995V16.0205H118.229V18.3602C118.922 17.5184 119.801 16.8623 120.866 16.3919C121.955 15.9215 123.106 15.6863 124.319 15.6863Z" fill="white"/>
<path d="M107.707 36.7432C106.94 36.7432 106.296 36.4832 105.776 35.9633C105.256 35.4433 104.996 34.7996 104.996 34.0321C104.996 33.2646 105.256 32.6209 105.776 32.1009C106.296 31.581 106.94 31.321 107.707 31.321C108.45 31.321 109.081 31.581 109.601 32.1009C110.121 32.6209 110.381 33.2646 110.381 34.0321C110.381 34.7996 110.121 35.4433 109.601 35.9633C109.081 36.4832 108.45 36.7432 107.707 36.7432Z" fill="#2DB1FF"/>
<path d="M96.9649 32.6954L102.758 16.0205H107.252L99.4532 36.4834H94.4024L86.6406 16.0205H91.1714L96.9649 32.6954Z" fill="white"/>
<path d="M76.9685 36.8177C75.3591 36.8177 73.9108 36.533 72.6233 35.9635C71.3606 35.3693 70.3579 34.577 69.6152 33.5867C68.8724 32.5716 68.4763 31.4451 68.4268 30.2072H72.809C72.8833 31.0737 73.2918 31.8041 74.0346 32.3983C74.8021 32.9677 75.7553 33.2525 76.8942 33.2525C78.0826 33.2525 78.9987 33.0296 79.6424 32.584C80.3109 32.1136 80.6451 31.5194 80.6451 30.8014C80.6451 30.0339 80.2737 29.4644 79.531 29.093C78.813 28.7216 77.6617 28.3131 76.0771 27.8675C74.5421 27.4466 73.2918 27.0381 72.3262 26.6419C71.3606 26.2458 70.5189 25.6392 69.8009 24.8222C69.1076 24.0051 68.761 22.9282 68.761 21.5912C68.761 20.5018 69.0829 19.5115 69.7266 18.6202C70.3703 17.7041 71.2864 16.9861 72.4748 16.4662C73.6879 15.9462 75.0744 15.6863 76.6342 15.6863C78.9615 15.6863 80.8308 16.2805 82.242 17.4689C83.678 18.6325 84.4455 20.2295 84.5446 22.2597H80.3109C80.2366 21.3436 79.8652 20.6132 79.1967 20.0685C78.5282 19.5239 77.6246 19.2515 76.4857 19.2515C75.3715 19.2515 74.5174 19.462 73.9232 19.8829C73.3289 20.3037 73.0318 20.8608 73.0318 21.5541C73.0318 22.0987 73.2299 22.5568 73.6261 22.9282C74.0222 23.2995 74.505 23.5966 75.0744 23.8195C75.6439 24.0175 76.4857 24.2775 77.5998 24.5994C79.0853 24.9955 80.2985 25.404 81.2393 25.8249C82.2049 26.221 83.0343 26.8152 83.7275 27.6075C84.4208 28.3998 84.7798 29.452 84.8045 30.7642C84.8045 31.9279 84.4827 32.9677 83.8389 33.8838C83.1952 34.7999 82.2792 35.5179 81.0908 36.0378C79.9271 36.5577 78.553 36.8177 76.9685 36.8177Z" fill="white"/>
<path d="M57.4597 36.8177C55.8504 36.8177 54.402 36.533 53.1145 35.9635C51.8519 35.3693 50.8491 34.577 50.1064 33.5867C49.3636 32.5716 48.9675 31.4451 48.918 30.2072H53.3002C53.3745 31.0737 53.783 31.8041 54.5258 32.3983C55.2933 32.9677 56.2465 33.2525 57.3854 33.2525C58.5738 33.2525 59.4899 33.0296 60.1336 32.584C60.8021 32.1136 61.1363 31.5194 61.1363 30.8014C61.1363 30.0339 60.7649 29.4644 60.0222 29.093C59.3042 28.7216 58.1529 28.3131 56.5684 27.8675C55.0333 27.4466 53.783 27.0381 52.8174 26.6419C51.8519 26.2458 51.0101 25.6392 50.2921 24.8222C49.5988 24.0051 49.2522 22.9282 49.2522 21.5912C49.2522 20.5018 49.5741 19.5115 50.2178 18.6202C50.8615 17.7041 51.7776 16.9861 52.966 16.4662C54.1792 15.9462 55.5656 15.6863 57.1254 15.6863C59.4527 15.6863 61.322 16.2805 62.7332 17.4689C64.1692 18.6325 64.9367 20.2295 65.0358 22.2597H60.8021C60.7278 21.3436 60.3564 20.6132 59.6879 20.0685C59.0195 19.5239 58.1158 19.2515 56.9769 19.2515C55.8627 19.2515 55.0086 19.462 54.4144 19.8829C53.8202 20.3037 53.5231 20.8608 53.5231 21.5541C53.5231 22.0987 53.7211 22.5568 54.1173 22.9282C54.5134 23.2995 54.9962 23.5966 55.5656 23.8195C56.1351 24.0175 56.9769 24.2775 58.091 24.5994C59.5765 24.9955 60.7897 25.404 61.7305 25.8249C62.6961 26.221 63.5255 26.8152 64.2187 27.6075C64.912 28.3998 65.271 29.452 65.2957 30.7642C65.2957 31.9279 64.9739 32.9677 64.3302 33.8838C63.6864 34.7999 62.7704 35.5179 61.582 36.0378C60.4183 36.5577 59.0442 36.8177 57.4597 36.8177Z" fill="white"/>
</svg>
